<svg id="a" xmlns="http://www.w3.org/2000/svg" viewBox="10 10 245 110"><defs><style>.b{fill:#fff;stroke-width:0px;}</style></defs><path class="b" d="M68.37,61.7v20.85c0,11.24-2.5,19.85-7.49,25.83-4.99,5.98-11.82,8.97-20.48,8.97s-15.46-3-20.49-9c-1.23-1.46-2.31-3.08-3.23-4.84l51.13-50.35c.38,2.65.56,5.5.56,8.54"/><path class="b" d="M67.15,49.49l-10.46,10.31v-22.49l9.7,9.22c.28.96.54,1.95.76,2.97"/><polygon class="b" points="53.43 30.97 53.43 63 42.34 73.91 42.05 20.16 53.43 30.97"/><polygon class="b" points="56.69 37.25 56.69 37.3 56.69 37.25 56.69 37.25"/><path class="b" d="M12.36,51.22v31.33c0,7.01.99,13.01,2.96,17.98l8.72-8.59v-52.4l-11.69,11.68ZM17.61,86.64h-3.3s0,0,0,0v-8.55h3.3s0,0,0,0v8.55ZM22.08,72.88h0s-3.3,0-3.3,0v-8.55h0s3.3,0,3.3,0v8.55ZM22.08,59.05h0s-3.3,0-3.3,0v-8.55h0s3.3,0,3.3,0v8.55Z"/><path class="b" d="M27.45,23.31v65.27l11.07-10.9V12.36l-11.07,10.96ZM32.71,61.74h-3.3s0,0,0,0v-8.55h3.3s0,0,0,0v8.55ZM36.56,73.8h0s-3.3,0-3.3,0v-8.55h0s3.3,0,3.3,0v8.55ZM36.56,33.5h0s-3.3,0-3.3,0v-8.54h0s3.3,0,3.3,0v8.54Z"/><path class="b" d="M81.73,55.83h8.34c1.66,0,2.88-.35,3.65-1.05.77-.7,1.16-1.93,1.16-3.67,0-1.43-.38-2.5-1.14-3.2-.76-.7-2.14-1.05-4.15-1.05h-7.86v8.98ZM81.73,43.41h8.08c1.58,0,2.7-.36,3.37-1.1.67-.73,1.01-1.71,1.01-2.94,0-1.43-.34-2.5-1.03-3.2-.69-.7-1.98-1.05-3.87-1.05h-7.56v8.29ZM77.04,59.27v-27.67h13.41c2.75,0,4.78.65,6.1,1.93,1.32,1.29,1.98,3.11,1.98,5.46,0,1.49-.3,2.74-.9,3.76-.6,1.02-1.4,1.78-2.41,2.3,1.35.37,2.41,1.04,3.2,2,.79.96,1.18,2.37,1.18,4.23,0,2.69-.73,4.7-2.17,6.02-1.45,1.32-3.57,1.98-6.38,1.98h-14.01Z"/><path class="b" d="M115.11,59.7c-3.81,0-6.77-.92-8.87-2.75-2.1-1.83-3.16-4.48-3.16-7.95v-17.4h4.68v17.23c0,2.32.64,4.05,1.91,5.2,1.27,1.15,3.09,1.72,5.43,1.72s4.12-.57,5.39-1.72c1.27-1.15,1.91-2.88,1.91-5.2v-17.23h4.64v17.4c0,3.47-1.05,6.12-3.14,7.95-2.09,1.83-5.03,2.75-8.81,2.75"/><rect class="b" x="130.54" y="31.6" width="4.68" height="27.67"/><polygon class="b" points="139.78 59.27 139.78 31.6 144.46 31.6 144.46 55.66 158.64 55.66 158.64 59.27 139.78 59.27"/><path class="b" d="M166.07,55.66h5.8c1.81,0,3.31-.27,4.51-.79,1.2-.53,2.11-1.53,2.71-2.99.6-1.46.9-3.55.9-6.27s-.27-4.83-.82-6.32c-.54-1.49-1.41-2.54-2.6-3.14-1.19-.6-2.76-.9-4.71-.9h-5.8v20.41ZM161.39,59.27v-27.67h11.21c4.1,0,7.13,1.08,9.11,3.24,1.98,2.16,2.96,5.75,2.96,10.76,0,4.73-.97,8.18-2.92,10.38-1.95,2.19-5,3.29-9.15,3.29h-11.21Z"/><rect class="b" x="188.42" y="31.6" width="4.68" height="27.67"/><polygon class="b" points="198.51 59.27 198.51 31.6 202.64 31.6 217.07 51.96 217.07 31.6 221.72 31.6 221.72 59.27 217.59 59.27 203.2 38.94 203.2 59.27 198.51 59.27"/><path class="b" d="M238.99,59.7c-4.55,0-7.98-1.23-10.29-3.7-2.31-2.46-3.46-5.8-3.46-10.01,0-3.04.5-5.66,1.5-7.88,1-2.22,2.53-3.93,4.58-5.14,2.05-1.2,4.65-1.8,7.8-1.8,1.63,0,3.11.11,4.45.32,1.33.22,2.59.52,3.76.92v4.04c-2.35-.86-4.96-1.29-7.82-1.29-3.52,0-5.99.93-7.41,2.79s-2.13,4.54-2.13,8.03c0,3.18.74,5.6,2.23,7.26,1.49,1.66,3.8,2.49,6.92,2.49,2.46,0,4.45-.29,5.97-.86v-7.73h-6.92v-3.05h10.91v13.32c-.89.57-2.16,1.09-3.8,1.57-1.65.47-3.74.71-6.29.71"/><polygon class="b" points="85.94 92.87 85.94 68.85 77.09 68.85 77.09 65.2 99.43 65.2 99.43 68.85 90.62 68.85 90.62 92.87 85.94 92.87"/><path class="b" d="M113.22,89.35c2.89,0,5.02-.79,6.38-2.39,1.36-1.59,2.04-4.2,2.04-7.84,0-3.84-.68-6.52-2.04-8.06-1.36-1.53-3.49-2.3-6.38-2.3s-4.98.77-6.34,2.3c-1.36,1.53-2.04,4.22-2.04,8.06,0,3.64.68,6.25,2.04,7.84,1.36,1.59,3.47,2.39,6.34,2.39M113.22,93.3c-4.38,0-7.66-1.15-9.84-3.46-2.18-2.3-3.27-5.88-3.27-10.72s1.09-8.69,3.27-10.96c2.18-2.26,5.46-3.4,9.84-3.4s7.7,1.13,9.86,3.4c2.16,2.26,3.25,5.91,3.25,10.96s-1.08,8.42-3.25,10.72c-2.16,2.31-5.45,3.46-9.86,3.46"/><polygon class="b" points="136.47 92.87 136.47 90.38 151.34 69.02 137.2 69.02 137.2 65.2 157.35 65.2 157.35 68.08 142.61 89.26 157.57 89.26 157.57 92.87 136.47 92.87"/><polygon class="b" points="161.18 92.87 161.18 65.2 180.47 65.2 180.47 68.85 165.86 68.85 165.86 77.23 178.88 77.23 178.88 80.84 165.86 80.84 165.86 89.26 180.47 89.26 180.47 92.87 161.18 92.87"/><path class="b" d="M188.63,79.29h6.79c1.69,0,3.02-.41,4-1.25.97-.83,1.46-2.16,1.46-4,0-3.47-1.68-5.2-5.03-5.2h-7.22v10.44ZM183.95,92.87v-27.67h12.72c3.09,0,5.35.79,6.77,2.38,1.42,1.59,2.13,3.75,2.13,6.47,0,1.95-.49,3.61-1.46,4.98-.97,1.38-2.38,2.34-4.21,2.88.52.37.92.77,1.2,1.2.29.43.57,1,.86,1.72l3.48,8.03h-4.81l-3.39-7.73c-.32-.74-.7-1.27-1.14-1.59-.45-.32-1.2-.47-2.26-.47h-5.2v9.8h-4.68Z"/><path class="b" d="M221.12,89.35c2.89,0,5.02-.79,6.38-2.39,1.36-1.59,2.04-4.2,2.04-7.84,0-3.84-.68-6.52-2.04-8.06-1.36-1.53-3.49-2.3-6.38-2.3s-4.98.77-6.34,2.3c-1.36,1.53-2.04,4.22-2.04,8.06,0,3.64.68,6.25,2.04,7.84,1.36,1.59,3.47,2.39,6.34,2.39M221.12,93.3c-4.38,0-7.66-1.15-9.84-3.46-2.18-2.3-3.27-5.88-3.27-10.72s1.09-8.69,3.27-10.96c2.18-2.26,5.46-3.4,9.84-3.4s7.7,1.13,9.86,3.4c2.16,2.26,3.24,5.91,3.24,10.96s-1.08,8.42-3.24,10.72c-2.16,2.31-5.45,3.46-9.86,3.46"/><polygon class="b" points="78.47 117.07 78.47 98.96 91.1 98.96 91.1 101.35 81.54 101.35 81.54 106.83 90.06 106.83 90.06 109.2 81.54 109.2 81.54 114.71 91.1 114.71 91.1 117.07 78.47 117.07"/><polygon class="b" points="93.24 117.07 99.71 108.04 93.38 98.96 96.92 98.96 101.53 105.68 106.15 98.96 109.72 98.96 103.36 108.04 109.83 117.07 106.23 117.07 101.53 110.44 96.84 117.07 93.24 117.07"/><path class="b" d="M120.07,117.35c-2.98,0-5.24-.82-6.76-2.45-1.53-1.63-2.29-3.83-2.29-6.61,0-1.99.32-3.7.97-5.13.65-1.43,1.64-2.54,2.97-3.32,1.33-.78,3.03-1.17,5.09-1.17,1.05,0,2.01.08,2.88.24.87.16,1.68.37,2.43.63v2.67c-.75-.3-1.55-.53-2.41-.69-.85-.16-1.75-.24-2.69-.24-2.25,0-3.84.6-4.77,1.8s-1.39,2.93-1.39,5.2c0,2.12.51,3.73,1.52,4.83,1.01,1.1,2.58,1.64,4.7,1.64.86,0,1.73-.07,2.6-.21.87-.14,1.69-.36,2.46-.66v2.7c-.75.24-1.56.43-2.43.56-.87.13-1.83.2-2.88.2"/><polygon class="b" points="128.93 117.07 128.93 98.96 132 98.96 132 106.83 140.72 106.83 140.72 98.96 143.78 98.96 143.78 117.07 140.72 117.07 140.72 109.2 132 109.2 132 117.07 128.93 117.07"/><path class="b" d="M152.25,110.04h6.3l-3.15-8.3-3.15,8.3ZM146.79,117.07l6.92-18.11h3.43l6.86,18.11h-3.15l-1.8-4.67h-7.28l-1.8,4.67h-3.18Z"/><polygon class="b" points="167.02 117.07 167.02 98.96 169.72 98.96 179.17 112.29 179.17 98.96 182.21 98.96 182.21 117.07 179.51 117.07 170.08 103.77 170.08 117.07 167.02 117.07"/><path class="b" d="M194.78,117.35c-2.98,0-5.23-.81-6.74-2.42-1.51-1.61-2.26-3.8-2.26-6.55,0-1.99.33-3.71.99-5.16.66-1.45,1.65-2.57,3-3.36,1.34-.79,3.04-1.18,5.11-1.18,1.07,0,2.04.07,2.91.21.87.14,1.69.34,2.46.6v2.64c-1.54-.56-3.24-.84-5.12-.84-2.31,0-3.92.61-4.85,1.83-.93,1.22-1.39,2.97-1.39,5.26,0,2.08.49,3.67,1.46,4.75s2.48,1.63,4.53,1.63c1.61,0,2.92-.19,3.91-.56v-5.06h-4.53v-2h7.14v8.72c-.58.38-1.41.72-2.49,1.03-1.08.31-2.45.46-4.12.46"/><polygon class="b" points="204.93 117.07 204.93 98.96 217.56 98.96 217.56 101.35 208 101.35 208 106.83 216.52 106.83 216.52 109.2 208 109.2 208 114.71 217.56 114.71 217.56 117.07 204.93 117.07"/></svg>